<svg width="291" height="356" viewBox="0 0 291 356" fill="none" xmlns="http://www.w3.org/2000/svg">
<path fill-rule="evenodd" clip-rule="evenodd" d="M245.676 0H45.3244C21.6938 0 2.53747 19.1563 2.53747 42.7869V78.103C1.41221 78.103 0.5 79.0153 0.5 80.1405V97.7986C0.5 98.9239 1.41221 99.8361 2.53747 99.8361V120.211C1.41221 120.211 0.5 121.123 0.5 122.248V160.281C0.5 161.406 1.41221 162.319 2.53747 162.319V173.185C1.41221 173.185 0.5 174.097 0.5 175.222V213.255C0.5 214.381 1.41221 215.293 2.53747 215.293V539.93C2.53747 563.56 21.6938 582.717 45.3244 582.717H245.676C269.306 582.717 288.463 563.56 288.463 539.93V201.71C289.588 201.71 290.5 200.797 290.5 199.672V135.831C290.5 134.706 289.588 133.794 288.463 133.794V42.7869C288.463 19.1563 269.306 0 245.676 0ZM5.93326 42.7869C5.93326 21.0318 23.5693 3.39578 45.3244 3.39578H245.676C267.431 3.39578 285.067 21.0318 285.067 42.7869V539.93C285.067 561.685 267.431 579.321 245.676 579.321H45.3244C23.5693 579.321 5.93326 561.685 5.93326 539.93V42.7869Z" fill="#E4E4E4"/>
<path fill-rule="evenodd" clip-rule="evenodd" d="M272.842 42.7869C272.842 27.7775 260.685 15.6206 245.676 15.6206H221.566C218.565 15.6206 216.132 18.0531 216.132 21.0538V21.733C216.132 30.0187 209.477 36.6744 201.191 36.6744H89.8092C81.5235 36.6744 74.8678 30.0187 74.8678 21.733V21.0538C74.8678 18.0531 72.4352 15.6206 69.4345 15.6206H45.3245C30.3151 15.6206 18.1582 27.7775 18.1582 42.7869V539.93C18.1582 554.939 30.3151 567.096 45.3245 567.096H245.676C260.685 567.096 272.842 554.939 272.842 539.93V42.7869ZM45.3245 3.39575H245.676C267.409 3.39575 285.067 21.0538 285.067 42.7869V539.93C285.067 561.663 267.409 579.321 245.676 579.321H45.3245C23.5914 579.321 5.93335 561.663 5.93335 539.93V42.7869C5.93335 21.0538 23.5914 3.39575 45.3245 3.39575Z" fill="white"/>
<path d="M180.816 21.733C180.816 24.3586 178.688 26.4871 176.062 26.4871C173.437 26.4871 171.308 24.3586 171.308 21.733C171.308 19.1074 173.437 16.9789 176.062 16.9789C178.688 16.9789 180.816 19.1074 180.816 21.733Z" fill="#4F4F4F"/>
<path d="M130.219 19.6955C129.094 19.6955 128.182 20.6077 128.182 21.733C128.182 22.8582 129.094 23.7705 130.219 23.7705H160.102C161.227 23.7705 162.139 22.8582 162.139 21.733C162.139 20.6077 161.227 19.6955 160.102 19.6955H130.219Z" fill="#4F4F4F"/>
</svg>
