<svg width="123" height="43" viewBox="0 0 123 43" fill="none" xmlns="http://www.w3.org/2000/svg">
<path d="M18.188 34H12.958V28.0089L11.5462 26.4007L6.40224 34H0.276123L7.62992 23.3069L0.632151 15.1429H6.6355L12.6757 22.3002H12.958V8.85714H18.188V34Z" fill="#6979F8"/>
<path d="M13.196 34H18.3523V30.9799H18.5855C19.3099 32.5513 20.8936 34.3069 23.9382 34.3069C28.2351 34.3069 31.5866 30.9063 31.5866 24.596C31.5866 18.1138 28.0878 14.8973 23.9505 14.8973C20.7953 14.8973 19.2853 16.7757 18.5855 18.3103H18.4259V8.85714H13.196V34ZM18.3154 24.5714C18.3154 21.2076 19.7395 19.0592 22.2808 19.0592C24.8712 19.0592 26.2462 21.3058 26.2462 24.5714C26.2462 27.8616 24.8467 30.1451 22.2808 30.1451C19.7641 30.1451 18.3154 27.9353 18.3154 24.5714Z" fill="#6979F8"/>
<path d="M41.5531 33.7143H45.3311V28.6363L47.1895 26.3677L52.0843 33.7143H56.6039L49.8943 23.8462L56.5254 15.8452H51.9971L45.5666 23.724H45.3311V15.8452H41.5531V33.7143ZM59.2629 33.7143H62.9798V20.3125H59.2629V33.7143ZM61.1301 18.5849C62.2382 18.5849 63.1456 17.7386 63.1456 16.7003C63.1456 15.6707 62.2382 14.8244 61.1301 14.8244C60.0307 14.8244 59.1233 15.6707 59.1233 16.7003C59.1233 17.7386 60.0307 18.5849 61.1301 18.5849ZM65.9573 33.7143H69.6742V29.4564L70.6776 28.3134L74.3334 33.7143H78.6873L73.4609 26.1147L78.4342 20.3125H74.1677L69.8749 25.3992H69.6742V15.8452H65.9573V33.7143ZM80.3276 33.7143H83.9922V31.5679H84.1579C84.6727 32.6847 85.7983 33.9324 87.9621 33.9324C91.0159 33.9324 93.3979 31.5156 93.3979 27.0308C93.3979 22.424 90.9112 20.138 87.9708 20.138C85.7285 20.138 84.6553 21.4729 84.1579 22.5636H84.0445V15.8452H80.3276V33.7143ZM83.966 27.0134C83.966 24.6227 84.9781 23.0958 86.7842 23.0958C88.6252 23.0958 89.6024 24.6925 89.6024 27.0134C89.6024 29.3517 88.6078 30.9746 86.7842 30.9746C84.9956 30.9746 83.966 29.4041 83.966 27.0134ZM99.6996 33.9673C101.68 33.9673 102.963 33.1035 103.617 31.8558H103.722V33.7143H107.247V24.675C107.247 21.4816 104.542 20.138 101.558 20.138C98.3472 20.138 96.2357 21.6736 95.7209 24.1166L99.1586 24.3958C99.4117 23.5059 100.206 22.8515 101.541 22.8515C102.806 22.8515 103.53 23.4884 103.53 24.5878V24.6401C103.53 25.5039 102.614 25.6174 100.284 25.8442C97.6317 26.0885 95.2498 26.9785 95.2498 29.9712C95.2498 32.6237 97.1431 33.9673 99.6996 33.9673ZM100.764 31.4021C99.6211 31.4021 98.8009 30.8699 98.8009 29.8491C98.8009 28.802 99.6647 28.2873 100.973 28.104C101.785 27.9906 103.111 27.7986 103.556 27.502V28.9242C103.556 30.3289 102.396 31.4021 100.764 31.4021ZM110.131 33.7143H113.847V29.4564L114.851 28.3134L118.507 33.7143H122.86L117.634 26.1147L122.607 20.3125H118.341L114.048 25.3992H113.847V15.8452H110.131V33.7143Z" fill="white"/>
</svg>
